<?xml version="1.0" encoding="utf-8"?>
<!-- Generator: Adobe Illustrator 26.0.1, SVG Export Plug-In . SVG Version: 6.00 Build 0)  -->
<svg version="1.2" baseProfile="tiny-ps" id="Default" xmlns="http://www.w3.org/2000/svg" xmlns:xlink="http://www.w3.org/1999/xlink" viewBox="0 0 200 200" overflow="visible" xml:space="preserve">
<title>EUROCONTROL - Logo</title>
<g id="Logo_Full-color">
	<g id="bg">
		<g>
			<rect id="path-1" width="200" height="200"/>
		</g>
		<rect id="path-1-2" fill="#FFFFFF" width="200" height="200"/>
	</g>
</g>
<g>
	<path fill="#003366" d="M145.2,54.4C127.2,29.7,92.6,24.1,67.8,42C50.2,54.8,41.6,76.7,46,98l55.7-24.7H71.1
		c7.4-16,26.3-22.9,42.3-15.5c3.4,1.6,6.4,3.7,9,6.3L145.2,54.4z"/>
	<polygon fill="#2990EA" points="156.5,51.8 100.7,108.5 30,108.5 	"/>
	<polygon fill="#003366" points="41.7,162.5 36.7,162.5 36.7,166.5 42.3,166.5 42.3,168.4 34.2,168.4 34.2,155 42.1,155 42.1,156.9 
		36.7,156.9 36.7,160.5 41.7,160.5 	"/>
	<path fill="#003366" d="M46.9,155v7.9c0,2.7,1.2,3.8,2.7,3.8s2.9-1.1,2.9-3.8V155H55v7.7c0,4.2-2.1,6-5.4,6s-5.2-1.7-5.2-6V155
		H46.9z"/>
	<path fill="#003366" d="M58,155.2c1.2-0.2,2.4-0.4,3.6-0.4c1.5-0.1,3,0.3,4.2,1.1c0.8,0.7,1.2,1.7,1.1,2.7c0,1.5-1,2.9-2.5,3.3
		c1,0.5,1.7,1.4,2,2.5c0.2,1.2,0.5,2.4,0.8,3.6h-2.5c-0.4-1-0.7-2-1-3.1c-0.4-1.7-1-2.3-2.5-2.3h-1.2v5.6h-2.5v-13H58z M60.3,161.2
		h1.5c1.7,0,2.7-1,2.7-2.3s-1-2.1-2.7-2.1c-0.8,0-1.3,0-1.5,0.2L60.3,161.2z"/>
	<path fill="#003366" d="M74.6,168.6c-3.8,0-6.2-2.9-6.2-6.9c-0.3-3.6,2.4-6.8,6-7.1c0.1,0,0.2,0,0.3,0c3.4,0,6.2,2.7,6.2,6.1
		c0,0.2,0,0.4,0,0.7C81.1,166.1,78.3,168.6,74.6,168.6 M74.8,166.6c2.3,0,3.7-2,3.7-5c0-2.5-1.4-5-3.7-5s-3.7,2.3-3.7,5
		S72.3,166.6,74.8,166.6"/>
	<path fill="#003366" d="M92.9,168c-1.1,0.4-2.3,0.6-3.5,0.6c-3.5,0.3-6.6-2.4-6.9-5.9c0-0.3,0-0.6,0-0.8c-0.2-3.7,2.7-6.9,6.4-7.1
		c0.2,0,0.5,0,0.7,0c1.1,0,2.2,0.2,3.3,0.6l-0.6,2c-0.8-0.4-1.8-0.6-2.7-0.6c-2.7,0-4.9,2.2-4.9,4.9c0,2.7,2.2,4.9,4.9,4.9
		c0.9,0,1.8-0.2,2.7-0.4L92.9,168z"/>
	<path fill="#003366" d="M99.8,168.6c-3.8,0-6.2-2.9-6.2-6.9c-0.3-3.6,2.4-6.8,6-7.1c0.1,0,0.2,0,0.3,0c3.4,0,6.2,2.7,6.2,6.1
		c0,0.2,0,0.4,0,0.7C106.4,166.1,103.7,168.6,99.8,168.6 M100,166.6c2.3,0,3.6-2,3.6-5c0-2.5-1.3-5-3.6-5s-3.7,2.3-3.7,5
		S97.7,166.6,100,166.6"/>
	<path fill="#003366" d="M108.4,168.4V155h2.9l3.5,5.8c0.9,1.4,1.6,2.9,2.3,4.4c-0.2-1.9-0.2-3.7-0.2-5.6V155h2.3v13.5h-2.5l-3.6-6
		c-0.9-1.5-1.6-3-2.3-4.6c0.2,1.9,0.2,3.8,0.2,5.8v4.8L108.4,168.4z"/>
	<polygon fill="#003366" points="124.4,157.1 120.5,157.1 120.5,155 130.7,155 130.7,157.1 126.9,157.1 126.9,168.4 124.4,168.4 	
		"/>
	<path fill="#003366" d="M132.3,155.2c1.2-0.3,2.5-0.4,3.7-0.4c1.5-0.1,3,0.3,4.2,1.1c0.8,0.7,1.2,1.7,1.2,2.7c0,1.5-1,2.9-2.5,3.3
		c1,0.5,1.7,1.4,2,2.5c0.2,1.2,0.5,2.4,0.8,3.6h-2.5c-0.4-1-0.7-2-1-3.1c-0.4-1.7-1-2.3-2.5-2.3h-1.1v5.6H132v-13H132.3z
		 M134.8,161.2h1.5c1.7,0,2.7-1,2.7-2.3s-0.9-2.1-2.7-2.1c-0.8,0-1.3,0-1.5,0.2V161.2z"/>
	<path fill="#003366" d="M149.2,168.6c-3.8,0-6.2-2.9-6.2-6.9c-0.3-3.6,2.4-6.8,6.1-7.1c0.1,0,0.2,0,0.3,0c3.4,0,6.1,2.7,6.2,6
		c0,0.2,0,0.5,0,0.7C155.5,166.1,152.8,168.6,149.2,168.6 M149.4,166.6c2.3,0,3.6-2,3.6-5c0-2.5-1.3-5-3.6-5s-3.7,2.3-3.7,5
		S146.9,166.6,149.4,166.6"/>
	<polygon fill="#003366" points="157.6,155 160.1,155 160.1,166.3 165.7,166.3 165.7,168.4 157.8,168.4 157.8,155 	"/>
	<path fill="#003366" d="M99.8,119c-7.5,0-14.7-2.5-20.5-7.3H49.6c14.3,27.8,48.3,38.7,76.1,24.5c11-5.7,19.9-14.8,25.2-26H122
		C116,115.8,108,119,99.8,119"/>
</g>
</svg>
